<svg
    xmlns="http://www.w3.org/2000/svg"
    xmlns:xlink="http://www.w3.org/1999/xlink" width="56" height="31" viewBox="0 10 56 41">
    <g fill="#2f4f6d">
        <path d="M10.72 24.880000000000003 l8.36 3.24 c2 0.8 3.64 2.48 2.24 6.28 l-1.92 5.2 c-0.48 1.28 -1.24 2.36 -2.16 3.12 c-1.08 0.88 -2.48 1.28 -4.08 1.28 l-15.76 0 l1.96 -5.32 l13.08 0 l2.12 -5.68 l-8.4 -3.24 c-2.44 -0.96 -3.48 -3.04 -2.4 -5.8 c1.4 -3.56 1.32 -3.6 2.64 -7.16 c0.48 -1.28 1.24 -2.36 2.16 -3.12 c1.08 -0.84 2.48 -1.24 4.08 -1.24 l11.92 0 c1.08 0 2.2 0.28 2.8 1.16 c0.84 1.2 0.4 2.52 -0.08 3.72 l-1.84 5 l-7.28 0 l1.72 -4.6 l-6.52 0 z M44.84 39.6 c-0.48 1.28 -1.24 2.36 -2.16 3.12 c-1.08 0.88 -2.44 1.28 -4.04 1.28 l-12.92 0 c-1.08 0 -2.2 -0.32 -2.8 -1.2 c-0.84 -1.2 -0.4 -2.52 0.04 -3.72 l8.28 -22.28 c0.48 -1.28 1.24 -2.36 2.16 -3.12 c1.08 -0.84 2.44 -1.24 4.04 -1.24 l12.76 0 c1.04 0 2.2 0.28 2.8 1.16 c0.84 1.2 0.36 2.52 -0.08 3.72 l-2.36 6.4 l-7.28 0 l2.2 -6 l-7.28 0 l-7.8 20.96 l7.48 0 l2.44 -6.56 l-2.4 -4.6 l11.4 0 z"></path>
    </g>
</svg>
