<svg xmlns="http://www.w3.org/2000/svg" xmlns:xlink="http://www.w3.org/1999/xlink" width="320" height="142.75899512121185" viewBox="0 0 320 142.75899512121185" class="css-1j8o68f"><g id="SvgjsG6695" featurekey="symbolFeature-0" transform="matrix(1,0,0,1,0,22)" fill="#918623"><polygon xmlns="http://www.w3.org/2000/svg" style="" points="100,0 25,50 43.75,62.5 0,100 75,62.5 56.25,50 " fill="#918623"></polygon></g><g id="SvgjsG6696" featurekey="nameFeature-0" transform="matrix(3.567513942718506,0,0,3.567513942718506,129.27553787476086,-44.3798527943195)" fill="#2f4f6d"><path d="M10.72 24.880000000000003 l8.36 3.24 c2 0.8 3.64 2.48 2.24 6.28 l-1.92 5.2 c-0.48 1.28 -1.24 2.36 -2.16 3.12 c-1.08 0.88 -2.48 1.28 -4.08 1.28 l-15.76 0 l1.96 -5.32 l13.08 0 l2.12 -5.68 l-8.4 -3.24 c-2.44 -0.96 -3.48 -3.04 -2.4 -5.8 c1.4 -3.56 1.32 -3.6 2.64 -7.16 c0.48 -1.28 1.24 -2.36 2.16 -3.12 c1.08 -0.84 2.48 -1.24 4.08 -1.24 l11.92 0 c1.08 0 2.2 0.28 2.8 1.16 c0.84 1.2 0.4 2.52 -0.08 3.72 l-1.84 5 l-7.28 0 l1.72 -4.6 l-6.52 0 z M44.84 39.6 c-0.48 1.28 -1.24 2.36 -2.16 3.12 c-1.08 0.88 -2.44 1.28 -4.04 1.28 l-12.92 0 c-1.08 0 -2.2 -0.32 -2.8 -1.2 c-0.84 -1.2 -0.4 -2.52 0.04 -3.72 l8.28 -22.28 c0.48 -1.28 1.24 -2.36 2.16 -3.12 c1.08 -0.84 2.44 -1.24 4.04 -1.24 l12.76 0 c1.04 0 2.2 0.28 2.8 1.16 c0.84 1.2 0.36 2.52 -0.08 3.72 l-2.36 6.4 l-7.28 0 l2.2 -6 l-7.28 0 l-7.8 20.96 l7.48 0 l2.44 -6.56 l-2.4 -4.6 l11.4 0 z"></path></g><g id="SvgjsG6697" featurekey="sloganFeature-0" transform="matrix(1.327756643295288,0,0,1.327756643295288,119.92033483254922,116.016000746073)" fill="#2f4f6d"><path d="M12.76 20 l-1.6 -3.72 l-7.94 0 l-1.6 3.72 l-1.56 0 l6.28 -14.58 l1.74 0 l6.3 14.58 l-1.62 0 z M10.58 14.879999999999999 l-3.4 -7.88 l-3.38 7.88 l6.78 0 z M23.392 20.14 c-1.38 0 -2.7 -0.52 -3.56 -1.28 c-0.9 -0.78 -1.48 -1.82 -1.6 -2.84 l1.44 -0.4 c0.16 0.86 0.6 1.58 1.32 2.18 c0.7 0.6 1.5 0.9 2.4 0.9 c0.84 0 1.62 -0.2 2.24 -0.64 c0.62 -0.42 1.02 -1.14 1.02 -2.02 c0 -1.02 -0.54 -1.68 -1.22 -2.08 c-0.48 -0.28 -0.9 -0.4 -1.38 -0.5 l-1.92 -0.38 c-0.4 -0.08 -0.82 -0.22 -1.28 -0.42 c-0.46 -0.22 -0.86 -0.48 -1.2 -0.82 c-0.68 -0.66 -1.02 -1.5 -1.02 -2.52 c0 -0.8 0.22 -1.52 0.66 -2.14 c0.44 -0.64 1 -1.1 1.7 -1.44 c0.7 -0.32 1.44 -0.48 2.26 -0.48 c3.14 0 4.52 1.94 4.82 3.5 l-1.4 0.44 c-0.24 -1.04 -1.18 -2.52 -3.44 -2.52 c-1.56 -0.04 -3.08 1.06 -3.06 2.58 c0 1.12 0.7 2.02 2.12 2.3 l1.84 0.36 c1.24 0.24 2.2 0.66 2.84 1.28 c0.44 0.4 0.76 0.86 0.96 1.34 c0.2 0.5 0.3 0.94 0.3 1.34 c0.02 2.56 -2.14 4.32 -4.84 4.26 z M38.964 6.859999999999999 l0 13.14 l-1.52 0 l0 -13.14 l-4.88 0 l0 -1.44 l11.28 0 l0 1.44 l-4.88 0 z M48.536 14.940000000000001 l0 -1.54 l5.32 0 l0 1.54 l-5.32 0 z M72.928 9.6 l-1.46 0.52 c-0.18 -0.52 -0.42 -1.06 -1 -1.72 c-0.28 -0.3 -0.6 -0.6 -0.96 -0.84 c-0.72 -0.5 -1.84 -0.86 -3.06 -0.86 c-1.1 0 -2.08 0.26 -2.96 0.82 s-1.56 1.28 -2.04 2.2 c-0.48 0.9 -0.72 1.88 -0.72 2.96 c0 1.64 0.56 3.16 1.52 4.26 c0.98 1.1 2.5 1.78 4.22 1.78 c1.3 0 2.54 -0.42 3.48 -1.14 s1.58 -1.88 1.66 -3.22 l-6.08 0 l0 -1.42 l7.72 0 l0 0.56 c0 1.84 -0.66 3.5 -1.8 4.7 c-1.16 1.2 -2.94 1.94 -5 1.94 c-2.18 0 -4.08 -0.8 -5.32 -2.12 s-1.98 -3.2 -1.98 -5.26 c0 -1.38 0.32 -2.66 0.96 -3.8 s1.52 -2.04 2.64 -2.7 s2.38 -0.98 3.74 -0.98 c1.72 0 3.24 0.48 4.28 1.32 c1.06 0.82 1.76 1.82 2.16 3 z M89.7 20 l-1.86 0 l-4.32 -5.9 l-2.96 0 l0 5.9 l-1.54 0 l0 -14.58 l5.06 0 c1.72 0 3.1 0.48 3.9 1.28 s1.22 1.8 1.22 2.98 c0 2.46 -1.84 3.88 -4 4.16 z M80.56 6.859999999999999 l0 5.84 l3.38 0 c1.28 0 2.28 -0.36 2.86 -0.94 c0.56 -0.56 0.84 -1.26 0.84 -2.04 c0 -1.44 -0.88 -2.86 -3.66 -2.86 l-3.42 0 z M95.312 20 l0 -14.58 l9.12 0 l0 1.42 l-7.58 0 l0 5.04 l6.94 0 l0 1.42 l-6.94 0 l0 5.28 l7.66 0 l0 1.42 l-9.2 0 z M115.204 14.3 l-3.1 0 l0 5.7 l-1.54 0 l0 -14.58 l4.88 0 c3.56 -0.02 5.12 2.12 5.12 4.38 c0 1.26 -0.48 2.36 -1.34 3.18 c-0.88 0.82 -2.3 1.32 -4.02 1.32 z M115.324 6.859999999999999 l-3.22 0 l0 6.02 l3.14 0 c1.3 0 2.32 -0.38 2.9 -0.98 c0.58 -0.58 0.86 -1.3 0.86 -2.06 c0 -1.42 -0.82 -2.98 -3.68 -2.98 z"></path></g></svg>
